# xmcd CD database file
#
# Track frame offsets:
#	150
#	13572
#	26637
#	57450
#	75422
#	91135
#	104057
#	122595
#	146175
#	156187
#	173007
#	185895
#	201427
#	222205
#	240077
#	262187
#	280902
#	300127
#
# Disc length: 4282 seconds
#
# Revision: 0
# Processed by: cddbd v1.5PL3 Copyright (c) Steve Scherf et al.
# Submitted via: CDex 1.40Release
#
DISCID=f910b812
DTITLE=Roxy Music - The Greatest
DYEAR=1998
DGENRE=Pop
TTITLE0=Virginia Plain
TTITLE1=Pyjamarama
TTITLE2=For Your Pleasure
TTITLE3=Do the Strand
TTITLE4=Street Life
TTITLE5=All I Want Is You
TTITLE6=Love Is the Drug
TTITLE7=Both Ends Burning
TTITLE8=Trash
TTITLE9=Dance Away
TTITLE10=Angel Eyes
TTITLE11=Over You
TTITLE12=Oh Yeah
TTITLE13=Same Old Scene
TTITLE14=Jealous Guy
TTITLE15=More Than This
TTITLE16=Avalon
TTITLE17=Take a Chance with Me
EXTD=YEAR: 1998 ID3G: 13
EXTT0=
EXTT1=
EXTT2=
EXTT3=
EXTT4=
EXTT5=
EXTT6=
EXTT7=
EXTT8=
EXTT9=
EXTT10=
EXTT11=
EXTT12=
EXTT13=
EXTT14=
EXTT15=
EXTT16=
EXTT17=
PLAYORDER=
